<svg width="48" height="48" viewBox="0 0 48 48" fill="none" xmlns="http://www.w3.org/2000/svg">
  <path fill-rule="evenodd" clip-rule="evenodd" d="M10.3095 6.18458L2.43241 22.7305C2.40243 22.792 2.39294 22.8616 2.4053 22.9289C2.41767 22.9962 2.45125 23.0578 2.50114 23.1047L23.7754 43.4905C23.8358 43.5485 23.9163 43.5808 24 43.5808C24.0837 43.5808 24.1642 43.5485 24.2247 43.4905L45.4989 23.106C45.5488 23.0591 45.5824 22.9975 45.5947 22.9302C45.6071 22.8628 45.5976 22.7933 45.5676 22.7318L37.6905 6.18585C37.6651 6.13028 37.6242 6.08321 37.5727 6.05025C37.5213 6.0173 37.4614 5.99986 37.4003 6.00002H10.6023C10.5409 5.99926 10.4806 6.01628 10.4286 6.04903C10.3767 6.08177 10.3353 6.12885 10.3095 6.18458Z" fill="#50AF95"/>
  <path fill-rule="evenodd" clip-rule="evenodd" d="M26.7326 24.4294C26.5799 24.4409 25.7908 24.488 24.0306 24.488C22.6305 24.488 21.6365 24.446 21.2877 24.4294C15.8772 24.1914 11.8387 23.2496 11.8387 22.1219C11.8387 20.9942 15.8772 20.0536 21.2877 19.8118V23.4914C21.6416 23.5168 22.6547 23.5767 24.0547 23.5767C25.7348 23.5767 26.5761 23.5067 26.7275 23.4927V19.8144C32.1266 20.0549 36.1562 20.9968 36.1562 22.1219C36.1562 23.247 32.1279 24.1889 26.7275 24.4281L26.7326 24.4294ZM26.7326 19.4338V16.1412H34.2674V11.1201H13.753V16.1412H21.2865V19.4325C15.1632 19.7138 10.5583 20.9268 10.5583 22.3803C10.5583 23.8338 15.1632 25.0454 21.2865 25.328V35.8792H26.7314V25.3242C32.8406 25.0429 37.4378 23.8312 37.4378 22.379C37.4378 20.9268 32.8444 19.7151 26.7314 19.4325L26.7326 19.4338Z" fill="white"/>
</svg>
